<svg width="24" height="24" viewBox="0 0 24 24" fill="none" xmlns="http://www.w3.org/2000/svg">
<g clip-path="url(#clip0_43_213)">
<path d="M12.0005 0C8.73875 0 8.33225 0.01575 7.05575 0.06975C5.774 0.13275 4.907 0.3315 4.142 0.6285C3.34135 0.930765 2.61625 1.40401 2.01725 2.01525C1.40431 2.61285 0.930797 3.33835 0.6305 4.14C0.3335 4.905 0.13475 5.772 0.0717499 7.05375C0.0139999 8.331 0.00199986 8.73675 0.00199986 11.9985C0.00199986 15.2603 0.0177499 15.6667 0.0717499 16.9432C0.13475 18.2213 0.3335 19.092 0.6305 19.857C0.932765 20.6577 1.40601 21.3828 2.01725 21.9818C2.61485 22.5947 3.34035 23.0682 4.142 23.3685C4.907 23.6618 5.77775 23.8643 7.05575 23.9272C8.333 23.985 8.73875 23.997 12.0005 23.997C15.2622 23.997 15.6687 23.9813 16.9452 23.9272C18.2232 23.8643 19.094 23.661 19.859 23.3685C20.6597 23.0662 21.3847 22.593 21.9837 21.9818C22.5975 21.3848 23.0711 20.6591 23.3705 19.857C23.6637 19.092 23.8662 18.2213 23.9292 16.9432C23.987 15.666 23.999 15.2603 23.999 11.9985C23.999 8.73675 23.9832 8.33025 23.9292 7.05375C23.8662 5.77575 23.663 4.9005 23.3705 4.14C23.0682 3.33935 22.595 2.61425 21.9837 2.01525C21.3868 1.40152 20.6611 0.927885 19.859 0.6285C19.094 0.3315 18.2232 0.13275 16.9452 0.06975C15.668 0.012 15.2622 0 12.0005 0ZM12.0005 2.16C15.2037 2.16 15.5862 2.17575 16.8522 2.22975C18.02 2.2845 18.656 2.4795 19.0782 2.6445C19.6003 2.83719 20.0727 3.14389 20.4612 3.54225C20.8589 3.92912 21.1645 4.40051 21.3552 4.9215C21.5202 5.34375 21.7152 5.97975 21.77 7.1475C21.824 8.4135 21.8397 8.79675 21.8397 11.9992C21.8397 15.2017 21.824 15.585 21.7655 16.851C21.7025 18.0188 21.5075 18.6548 21.3432 19.077C21.116 19.6403 20.8625 20.034 20.444 20.46C20.0542 20.8559 19.582 21.1611 19.061 21.354C18.644 21.519 17.999 21.714 16.8267 21.7687C15.554 21.8228 15.179 21.8385 11.9675 21.8385C8.756 21.8385 8.38175 21.8228 7.1075 21.7642C5.93975 21.7013 5.2955 21.5063 4.87325 21.342C4.30325 21.1147 3.9125 20.8612 3.494 20.4427C3.07175 20.0205 2.80325 19.6185 2.59625 19.0597C2.42825 18.6427 2.23625 17.9977 2.174 16.8255C2.13125 15.5677 2.111 15.1778 2.111 11.9813C2.111 8.78625 2.13125 8.3955 2.174 7.122C2.23625 5.94975 2.42825 5.30625 2.59625 4.88775C2.80325 4.317 3.0725 3.927 3.494 3.50475C3.91175 3.087 4.30325 2.817 4.87325 2.6055C5.2955 2.44125 5.924 2.24625 7.09625 2.18775C8.369 2.142 8.744 2.1255 11.951 2.1255L12.0005 2.16ZM12.0005 5.84025C11.1915 5.83995 10.3904 5.99908 9.64292 6.30853C8.89545 6.61798 8.21628 7.0717 7.64424 7.64374C7.0722 8.21578 6.61848 8.89495 6.30903 9.64242C5.99958 10.3899 5.84045 11.191 5.84075 12C5.84045 12.809 5.99958 13.6101 6.30903 14.3576C6.61848 15.1051 7.0722 15.7842 7.64424 16.3563C8.21628 16.9283 8.89545 17.382 9.64292 17.6915C10.3904 18.0009 11.1915 18.16 12.0005 18.1597C12.8095 18.16 13.6106 18.0009 14.3581 17.6915C15.1056 17.382 15.7847 16.9283 16.3568 16.3563C16.9288 15.7842 17.3825 15.1051 17.692 14.3576C18.0014 13.6101 18.1605 12.809 18.1602 12C18.1605 11.191 18.0014 10.3899 17.692 9.64242C17.3825 8.89495 16.9288 8.21578 16.3568 7.64374C15.7847 7.0717 15.1056 6.61798 14.3581 6.30853C13.6106 5.99908 12.8095 5.83995 12.0005 5.84025ZM12.0005 15.9998C9.7895 15.9998 8.00075 14.211 8.00075 12C8.00075 9.789 9.7895 8.00025 12.0005 8.00025C14.2115 8.00025 16.0002 9.789 16.0002 12C16.0002 14.211 14.2115 15.9998 12.0005 15.9998ZM19.8485 5.59425C19.8481 5.9765 19.696 6.34296 19.4255 6.6131C19.1551 6.88326 18.7885 7.035 18.4062 7.035C18.2172 7.035 18.0301 6.99777 17.8555 6.92544C17.6809 6.85311 17.5222 6.7471 17.3885 6.61345C17.2549 6.47981 17.1489 6.32115 17.0766 6.14653C17.0042 5.97191 16.967 5.78475 16.967 5.59575C16.967 5.40674 17.0042 5.21959 17.0766 5.04497C17.1489 4.87036 17.2549 4.71169 17.3885 4.57805C17.5222 4.4444 17.6809 4.33839 17.8555 4.26606C18.0301 4.19373 18.2172 4.1565 18.4062 4.1565C19.199 4.1565 19.8485 4.8015 19.8485 5.59425Z" fill="black"/>
</g>
<defs>
<clipPath id="clip0_43_213">
<rect width="24" height="24" fill="white"/>
</clipPath>
</defs>
</svg>
